<mxfile host="app.diagrams.net" agent="Mozilla/5.0 (Windows NT 10.0; Win64; x64) AppleWebKit/537.36 (KHTML, like Gecko) Chrome/133.0.0.0 Safari/537.36 Edg/133.0.0.0" version="26.0.15">
  <diagram name="PÃ¡gina-1" id="v_yEJ2T_TndU8GWJPqLB">
    <mxGraphModel dx="1426" dy="781" grid="1" gridSize="10" guides="1" tooltips="1" connect="1" arrows="1" fold="1" page="1" pageScale="1" pageWidth="827" pageHeight="1169" math="0" shadow="0">
      <root>
        <mxCell id="0" />
        <mxCell id="1" parent="0" />
        <mxCell id="KcVQVdWg2HaO9E_A3gUF-9" style="edgeStyle=orthogonalEdgeStyle;rounded=0;orthogonalLoop=1;jettySize=auto;html=1;exitX=1;exitY=0.5;exitDx=0;exitDy=0;" edge="1" parent="1" source="KcVQVdWg2HaO9E_A3gUF-7" target="KcVQVdWg2HaO9E_A3gUF-8">
          <mxGeometry relative="1" as="geometry" />
        </mxCell>
        <mxCell id="KcVQVdWg2HaO9E_A3gUF-7" value="inicio" style="ellipse;whiteSpace=wrap;html=1;aspect=fixed;fillColor=#fa6800;fontColor=#000000;strokeColor=#C73500;" vertex="1" parent="1">
          <mxGeometry x="30" y="30" width="50" height="50" as="geometry" />
        </mxCell>
        <mxCell id="KcVQVdWg2HaO9E_A3gUF-12" style="edgeStyle=orthogonalEdgeStyle;rounded=0;orthogonalLoop=1;jettySize=auto;html=1;" edge="1" parent="1">
          <mxGeometry relative="1" as="geometry">
            <mxPoint x="235" y="90" as="targetPoint" />
            <mxPoint x="230" y="150" as="sourcePoint" />
          </mxGeometry>
        </mxCell>
        <mxCell id="KcVQVdWg2HaO9E_A3gUF-8" value="Digite o total de notas" style="shape=parallelogram;perimeter=parallelogramPerimeter;whiteSpace=wrap;html=1;fixedSize=1;" vertex="1" parent="1">
          <mxGeometry x="160" y="30" width="150" height="50" as="geometry" />
        </mxCell>
        <mxCell id="KcVQVdWg2HaO9E_A3gUF-10" value="Ler total de notas" style="shape=document;whiteSpace=wrap;html=1;boundedLbl=1;" vertex="1" parent="1">
          <mxGeometry x="150" y="160" width="140" height="120" as="geometry" />
        </mxCell>
        <mxCell id="KcVQVdWg2HaO9E_A3gUF-13" value="notaAtual&lt;div&gt;&lt;br&gt;&lt;/div&gt;&lt;div&gt;&amp;lt;&lt;/div&gt;&lt;div&gt;total de notas&lt;/div&gt;" style="rhombus;whiteSpace=wrap;html=1;" vertex="1" parent="1">
          <mxGeometry x="380" y="160" width="130" height="130" as="geometry" />
        </mxCell>
        <mxCell id="KcVQVdWg2HaO9E_A3gUF-14" style="edgeStyle=orthogonalEdgeStyle;rounded=0;orthogonalLoop=1;jettySize=auto;html=1;entryX=0.038;entryY=0.454;entryDx=0;entryDy=0;entryPerimeter=0;" edge="1" parent="1" source="KcVQVdWg2HaO9E_A3gUF-10" target="KcVQVdWg2HaO9E_A3gUF-13">
          <mxGeometry relative="1" as="geometry" />
        </mxCell>
        <mxCell id="KcVQVdWg2HaO9E_A3gUF-15" style="edgeStyle=orthogonalEdgeStyle;rounded=0;orthogonalLoop=1;jettySize=auto;html=1;entryX=0.557;entryY=0.017;entryDx=0;entryDy=0;entryPerimeter=0;" edge="1" parent="1" source="KcVQVdWg2HaO9E_A3gUF-8" target="KcVQVdWg2HaO9E_A3gUF-10">
          <mxGeometry relative="1" as="geometry" />
        </mxCell>
        <mxCell id="KcVQVdWg2HaO9E_A3gUF-16" value="informe a nota N" style="shape=parallelogram;perimeter=parallelogramPerimeter;whiteSpace=wrap;html=1;fixedSize=1;" vertex="1" parent="1">
          <mxGeometry x="380" y="360" width="130" height="80" as="geometry" />
        </mxCell>
        <mxCell id="KcVQVdWg2HaO9E_A3gUF-17" value="" style="shape=document;whiteSpace=wrap;html=1;boundedLbl=1;" vertex="1" parent="1">
          <mxGeometry x="600" y="360" width="120" height="80" as="geometry" />
        </mxCell>
        <mxCell id="KcVQVdWg2HaO9E_A3gUF-18" value="" style="shape=document;whiteSpace=wrap;html=1;boundedLbl=1;" vertex="1" parent="1">
          <mxGeometry x="600" y="360" width="120" height="80" as="geometry" />
        </mxCell>
        <mxCell id="KcVQVdWg2HaO9E_A3gUF-19" value="" style="shape=document;whiteSpace=wrap;html=1;boundedLbl=1;" vertex="1" parent="1">
          <mxGeometry x="600" y="360" width="120" height="80" as="geometry" />
        </mxCell>
      </root>
    </mxGraphModel>
  </diagram>
</mxfile>
